<?xml version="1.0" encoding="utf-8"?>
<!-- Generator: Adobe Illustrator 22.0.0, SVG Export Plug-In . SVG Version: 6.00 Build 0)  -->
<svg version="1.1" id="Layer_1" xmlns="http://www.w3.org/2000/svg" xmlns:xlink="http://www.w3.org/1999/xlink" x="0px" y="0px"
	 viewBox="0 0 516.5 222.3" style="enable-background:new 0 0 516.5 222.3;" xml:space="preserve">
<style type="text/css">
	.st0{opacity:0.95;fill:#FFFFFF;stroke:#FFFFFF;stroke-miterlimit:10;enable-background:new    ;}
	.st1{fill:#FFFFFF;stroke:#FFFFFF;stroke-miterlimit:10;}
</style>
<g>
	<path class="st0" d="M65.2,81.5H28.8l-7.8,17h-7.2l29.8-63.3h6.8l29.8,63.3H73L65.2,81.5z M62.7,76.1L47,42.1l-15.7,34H62.7z"/>
	<path class="st0" d="M104.4,91.9c-4.7-4.7-7.1-11.5-7.1-20.5V35.1h6.9v36c0,7.4,1.7,12.8,5.1,16.5c3.4,3.6,8.4,5.4,14.8,5.4
		c6.5,0,11.5-1.8,14.9-5.4s5.1-9.1,5.1-16.5v-36h6.7v36.3c0,9-2.3,15.8-7,20.5S132.5,99,124.1,99C115.7,99,109.2,96.7,104.4,91.9z"
		/>
	<path class="st0" d="M226,66.8h6.6V91c-3,2.6-6.7,4.6-10.8,6c-4.2,1.4-8.5,2.1-13.2,2.1c-6.5,0-12.4-1.4-17.6-4.2
		c-5.2-2.8-9.3-6.6-12.3-11.5s-4.5-10.4-4.5-16.5s1.5-11.6,4.5-16.5s7.1-8.8,12.3-11.5c5.2-2.8,11.1-4.2,17.7-4.2
		c5,0,9.5,0.8,13.7,2.3s7.7,3.8,10.5,6.8l-4.3,4.3c-5.2-4.9-11.7-7.4-19.7-7.4c-5.3,0-10.1,1.1-14.3,3.4c-4.3,2.3-7.6,5.4-10,9.4
		S181,62,181,66.9s1.2,9.4,3.6,13.4c2.4,4,5.8,7.1,10,9.4s9,3.4,14.3,3.4c6.7,0,12.4-1.6,17.1-4.9V66.8z"/>
	<path class="st0" d="M385.4,35.1v63.3h-5.7l-42-51.4v51.4h-6.9V35.1h5.7l42.1,51.4V35.1H385.4z"/>
	<path class="st0" d="M414.9,35.1h6.9v63.3h-6.9V35.1z"/>
	<path class="st0" d="M462.1,94.8c-5.2-2.8-9.3-6.6-12.2-11.5c-3-4.9-4.4-10.4-4.4-16.5s1.5-11.6,4.4-16.5c3-4.9,7-8.8,12.3-11.5
		c5.2-2.8,11.1-4.2,17.5-4.2c4.8,0,9.3,0.8,13.4,2.4c4.1,1.6,7.6,3.9,10.4,6.9l-4.4,4.3c-5.1-5-11.5-7.5-19.3-7.5
		c-5.2,0-9.9,1.1-14.1,3.4c-4.2,2.3-7.5,5.4-9.9,9.4s-3.6,8.4-3.6,13.4c0,4.9,1.2,9.4,3.6,13.4s5.7,7.1,9.9,9.4
		c4.2,2.3,8.9,3.4,14.1,3.4c7.8,0,14.3-2.5,19.3-7.6l4.4,4.3c-2.9,3-6.4,5.3-10.5,6.9s-8.6,2.4-13.5,2.4
		C473.2,99,467.3,97.6,462.1,94.8z"/>
	<path class="st0" d="M180.1,169.5h-36.4l-7.8,16.9h-7.2l29.8-63.3h6.8l29.8,63.3h-7.3L180.1,169.5z M177.6,164.1l-15.7-34l-15.7,34
		H177.6z"/>
	<path class="st0" d="M258.8,186.5l-14.9-20.4c-1.7,0.2-3.4,0.3-5.2,0.3h-17.5v20.1h-6.9v-63.3h24.4c8.3,0,14.9,1.9,19.6,5.8
		c4.7,3.9,7.1,9.2,7.1,15.9c0,4.9-1.3,9.1-3.9,12.5s-6.3,5.9-11.1,7.4l15.9,21.7H258.8z M253.3,156.5c3.4-2.8,5.1-6.7,5.1-11.7
		c0-5.1-1.7-9.1-5.1-11.8s-8.4-4.1-14.8-4.1h-17.3v31.8h17.3C245,160.7,249.9,159.3,253.3,156.5z"/>
	<path class="st0" d="M301.6,128.9h-22.9v-5.8h52.8v5.8h-22.9v57.5h-6.9v-57.5H301.6z"/>
	<path class="st0" d="M353.7,184.7c-4.4-1.5-7.9-3.5-10.3-6l2.7-5.2c2.4,2.3,5.5,4.1,9.4,5.6c3.9,1.4,8,2.1,12.1,2.1
		c5.8,0,10.2-1,13.2-3.1c2.9-2.1,4.4-4.8,4.4-8.1c0-2.5-0.8-4.6-2.4-6.1s-3.5-2.7-5.8-3.5s-5.5-1.7-9.6-2.7
		c-4.9-1.2-8.8-2.4-11.8-3.5c-2.9-1.1-5.4-2.8-7.5-5.1s-3.1-5.4-3.1-9.3c0-3.2,0.9-6.1,2.6-8.7c1.7-2.6,4.4-4.7,8-6.3
		c3.6-1.6,8.1-2.4,13.4-2.4c3.7,0,7.4,0.5,11,1.5s6.7,2.4,9.3,4.1l-2.3,5.3c-2.7-1.7-5.7-3.1-8.8-3.9c-3.1-0.9-6.2-1.3-9.1-1.3
		c-5.7,0-10,1.1-12.9,3.2c-2.9,2.1-4.3,4.9-4.3,8.3c0,2.5,0.8,4.6,2.4,6.1s3.6,2.7,6,3.5s5.6,1.7,9.7,2.7c4.8,1.1,8.7,2.3,11.6,3.4
		c3,1.1,5.5,2.8,7.5,5.1c2.1,2.3,3.1,5.3,3.1,9.2c0,3.2-0.9,6.1-2.7,8.7c-1.8,2.6-4.5,4.7-8.2,6.2s-8.2,2.3-13.5,2.3
		C362.8,187,358.2,186.3,353.7,184.7z"/>
</g>
<g>
	<g>
		<g>
			<rect x="257" y="35" class="st1" width="55" height="7.5"/>
		</g>
		<g>
			<rect x="257" y="62.5" class="st1" width="55" height="7.5"/>
		</g>
		<g>
			<rect x="257" y="90.5" class="st1" width="55" height="7.5"/>
		</g>
	</g>
</g>
</svg>
