<?xml version="1.0" encoding="utf-8"?>
<!-- Generator: Adobe Illustrator 22.0.0, SVG Export Plug-In . SVG Version: 6.00 Build 0)  -->
<svg version="1.1" id="primary_Logo" xmlns="http://www.w3.org/2000/svg" xmlns:xlink="http://www.w3.org/1999/xlink" x="0px"
	 y="0px" viewBox="0 0 249.8 215" style="enable-background:new 0 0 249.8 215;" xml:space="preserve">
<style type="text/css">
	.st0{fill:#D0D2D3;}
	.st1{fill:#A6A8AB;}
	.st2{fill:#808184;}
	.st3{fill:#58595B;}
</style>
<g id="XMLID_98_">
	<g id="XMLID_99_">
		<path id="XMLID_103_" class="st0" d="M168.9,0.4c-1.3-0.6-2.3,0-2.3,1.5v174.5l76.5,38.2c3.8,1.9,6.9,0,6.9-4.3v-168
			c0-0.9-0.4-1.6-1.2-2L168.9,0.4z"/>
		<path id="XMLID_102_" class="st1" d="M83.2,134.8l82-133.2c0.8-1.2,2.4-1.7,3.7-1l79.2,39.6c0.9,0.5,1.4,1.7,0.8,2.7l-82.3,133.6
			L83.2,134.8z"/>
		<path id="XMLID_101_" class="st2" d="M9.1,4C4,1.4,2.3,3.3,5.3,8.2l77.9,126.6l83.3,41.7L83.7,41.9c-0.3-0.6-0.9-1-1.5-1.4L9.1,4z
			"/>
		<path id="XMLID_100_" class="st3" d="M83.2,210.4c0,4.2-3.1,6.2-6.9,4.3L4.5,178.7c-2.6-1.3-4.6-4.6-4.6-7.5V4.5
			c0-2.8,2.1-4.1,4.6-2.8l77.7,38.9c0.6,0.3,1,0.9,1,1.6V210.4L83.2,210.4z"/>
	</g>
</g>
</svg>
