<?xml version="1.0" encoding="utf-8"?>
<!-- Generator: Adobe Illustrator 22.0.0, SVG Export Plug-In . SVG Version: 6.00 Build 0)  -->
<svg version="1.1" xmlns="http://www.w3.org/2000/svg" xmlns:xlink="http://www.w3.org/1999/xlink" x="0px" y="0px"
	 viewBox="0 0 350 350" style="enable-background:new 0 0 350 350;" xml:space="preserve">
<style type="text/css">
	.st0{opacity:0.67;}
	.st1{fill:#FFFFFF;}
	.st2{opacity:0.22;}
	.st3{opacity:0.44;}
	.st4{fill:none;stroke:#FFFFFF;stroke-width:2;stroke-miterlimit:10;}
	.st5{fill:#FFFFFF;stroke:#FFFFFF;}
	.st6{fill:#FFFFFF;stroke:#FFFFFF;stroke-width:0.25;stroke-miterlimit:10;}
</style>
<g id="Réteg_2">
</g>
<g id="Réteg_1">
	<g class="st0">
		
			<ellipse transform="matrix(0.9986 -5.326878e-02 5.326878e-02 0.9986 -9.0812 9.688)" class="st1" cx="177.2" cy="175.2" rx="116.8" ry="116.8"/>
		<path class="st1" d="M294,175.2c0,15.3-3,30.6-8.8,44.7c-5.8,14.2-14.5,27.1-25.3,38c-10.8,10.8-23.7,19.6-37.9,25.5
			c-14.1,5.9-29.5,9-44.8,9.1c-15.4,0.1-30.7-2.9-45-8.7C118,278,104.9,269.3,94,258.4c-10.9-10.9-19.7-23.9-25.6-38.2
			c-5.9-14.2-9-29.6-9-45.1c0-15.4,3.1-30.8,9-45.1C74.3,115.9,83.1,102.9,94,92c10.9-10.9,24-19.5,38.2-25.4
			c14.2-5.8,29.6-8.8,45-8.7c15.4,0.1,30.7,3.1,44.8,9.1c14.2,5.9,27.1,14.7,37.9,25.5c10.8,10.8,19.5,23.8,25.3,38
			C291.1,144.6,294.1,159.9,294,175.2z M294,175.2c0-15.3-3.1-30.6-8.9-44.7c-5.9-14.1-14.6-27-25.4-37.8
			c-10.8-10.8-23.8-19.4-37.9-25.2c-14.1-5.8-29.4-8.7-44.6-8.7c-15.2,0.1-30.4,3.1-44.5,9c-14,5.9-26.8,14.6-37.6,25.3
			c-10.7,10.8-19.3,23.6-25.1,37.7c-5.8,14-8.8,29.2-8.7,44.4c0,15.2,2.9,30.3,8.7,44.4c5.8,14,14.4,26.9,25.1,37.7
			c10.7,10.8,23.5,19.4,37.6,25.3c14,5.9,29.2,8.9,44.5,9c15.2,0.1,30.5-2.9,44.6-8.7c14.1-5.8,27.1-14.4,37.9-25.2
			c10.8-10.8,19.5-23.7,25.4-37.8C291,205.8,294,190.5,294,175.2z"/>
	</g>
	<g class="st2">
		<path class="st1" d="M61,175.6c-0.4-0.4-0.4-1,0-1.4L176.1,59c0.4-0.4,1-0.4,1.4,0l115.1,115.1c0.4,0.4,0.4,1,0,1.4L177.6,290.7
			c-0.4,0.4-1,0.4-1.4,0L61,175.6z"/>
		<path class="st1" d="M61,175.6c-0.3-0.3-0.4-0.8-0.2-1.2c0.2-0.4,0.6-0.6,0.9-0.9l1.8-1.8l3.6-3.6l7.3-7.3l14.5-14.6l29-29.1
			l57.9-58.4c0.5-0.5,1.2-0.6,1.8-0.3c0.1,0.1,0.3,0.2,0.4,0.3l0.2,0.2l0.5,0.5l1.8,1.8l3.6,3.6l7.3,7.2L206,86.5l29.2,28.9l58.2,58
			c0.6,0.6,0.8,1.6,0.3,2.4c-0.1,0.2-0.3,0.4-0.4,0.5l-0.2,0.2l-0.5,0.5l-1.8,1.8l-3.6,3.6l-7.3,7.3l-14.6,14.5l-29.1,29L177.9,291
			c-0.5,0.5-1.2,0.6-1.8,0.3c-0.1-0.1-0.3-0.2-0.4-0.3l-0.2-0.2l-0.5-0.5l-1.8-1.8l-3.6-3.6l-7.2-7.3L148,262.9L119,233.8L61,175.6z
			 M61,175.6l58.2,58l29.2,28.9l14.6,14.5l7.3,7.2l3.6,3.6l1.8,1.8l0.5,0.5l0.2,0.2c0.1,0.1,0.1,0.1,0.1,0.1
			c0.2,0.1,0.4,0.1,0.6-0.1l57.9-58.4l56.9-57.1l-58-58.2L205,87.5l-14.5-14.6l-7.2-7.3l-3.6-3.6l-1.8-1.8l-0.5-0.5l-0.2-0.2
			c-0.1-0.1-0.1-0.1-0.1-0.1c-0.2-0.1-0.4-0.1-0.6,0.1l-58.4,57.9l-29.1,29l-14.6,14.5l-7.3,7.3l-3.6,3.6l-1.8,1.8
			c-0.3,0.3-0.6,0.6-0.9,0.9C60.7,174.7,60.7,175.3,61,175.6z"/>
	</g>
	<g class="st3">
		<path class="st1" d="M259.3,290.9c0.3,0.4,0.4,0.4,0.2-0.1L177.2,59.3c-0.2-0.5-0.5-0.5-0.7,0L94.9,290.4
			c-0.2,0.5-0.3,0.5-0.3-0.1V59c0-0.5,0.3-0.6,0.6-0.2L259.3,290.9z"/>
		<path class="st4" d="M259.3,290.9c0.3,0.4,0.4,0.4,0.2-0.1L177.2,59.3c-0.2-0.5-0.5-0.5-0.7,0L94.9,290.4
			c-0.2,0.5-0.3,0.5-0.3-0.1V59c0-0.5,0.3-0.6,0.6-0.2L259.3,290.9z"/>
	</g>
	<g class="st3">
		<path class="st1" d="M261.1,58.3l-1.4,233.1L261.1,58.3z"/>
		<path class="st1" d="M261.1,58.3l0.1,58.3l-0.1,58.3l-0.2,58.3l-0.3,58.3l-2,0l0.4-58.3c0.2-19.4,0.3-38.9,0.5-58.3l0.6-58.3
			L261.1,58.3z M261.1,58.3l0.1,58.3l-0.1,58.3c0,19.4-0.1,38.9-0.2,58.3l-0.3,58.3l-2,0l0.4-58.3l0.5-58.3l0.6-58.3L261.1,58.3z"/>
	</g>
	<g>
		<path class="st5" d="M100.4,32.6v13.1H100l-9.6-12.4v12.4h-0.4V32.6h0.3L100,45V32.6H100.4z"/>
	</g>
	<g>
		<path class="st5" d="M173.5,34.9c-1-0.6-1.8-1.4-2.4-2.4c-0.6-1-0.9-2.1-0.9-3.4c0-1.2,0.3-2.4,0.9-3.4c0.6-1,1.4-1.8,2.4-2.4
			c1-0.6,2.2-0.9,3.4-0.9c1.3,0,2.4,0.3,3.4,0.9c1,0.6,1.8,1.4,2.4,2.4c0.6,1,0.9,2.1,0.9,3.4c0,1.2-0.3,2.4-0.9,3.4
			c-0.6,1-1.4,1.8-2.4,2.4s-2.2,0.9-3.4,0.9C175.7,35.8,174.6,35.5,173.5,34.9z M180.2,34.6c1-0.5,1.7-1.3,2.3-2.2
			c0.6-1,0.8-2,0.8-3.2c0-1.2-0.3-2.2-0.8-3.2c-0.6-1-1.3-1.7-2.3-2.2c-1-0.5-2-0.8-3.2-0.8c-1.2,0-2.3,0.3-3.2,0.8
			c-1,0.5-1.7,1.3-2.3,2.2c-0.6,1-0.8,2-0.8,3.2c0,1.2,0.3,2.2,0.8,3.2c0.6,1,1.3,1.7,2.3,2.2c1,0.5,2,0.8,3.2,0.8
			C178.2,35.4,179.2,35.1,180.2,34.6z"/>
	</g>
	<g>
		<path class="st5" d="M267,33.6l-5.9,13.1h-0.4l-5.9-13.1h0.4l5.6,12.6l5.6-12.6H267z"/>
	</g>
	<g>
		<path class="st5" d="M92.1,304.8h-4.9v-0.4h10.1v0.4h-4.9v12.7h-0.4V304.8z"/>
	</g>
	<g>
		<path class="st5" d="M175.8,314.5h0.4v13.1h-0.4V314.5z"/>
	</g>
	<g>
		<path class="st5" d="M256.7,305.4h0.4v12.7h7.8v0.4h-8.2V305.4z"/>
	</g>
	<g>
		<path class="st5" d="M43,168.1v13.1h-0.4v-6.5h-9.5v6.5h-0.4v-13.1h0.4v6.3h9.5v-6.3H43z"/>
	</g>
	<g>
		<line class="st1" x1="169.6" y1="36.2" x2="184.3" y2="21.5"/>
		<path class="st1" d="M169.6,36.2c2.2-2.7,4.6-5.2,7-7.7c2.5-2.4,5-4.8,7.7-7c-2.2,2.7-4.6,5.2-7,7.7
			C174.9,31.6,172.4,34,169.6,36.2z"/>
	</g>
	<rect x="308.8" y="170.6" class="st6" width="11.4" height="0.8"/>
	<rect x="311" y="174.4" class="st6" width="7" height="0.8"/>
	<rect x="308.8" y="178.4" class="st6" width="11.4" height="0.8"/>
</g>
</svg>
