<?xml version="1.0" encoding="utf-8"?>
<!-- Generator: Adobe Illustrator 22.0.0, SVG Export Plug-In . SVG Version: 6.00 Build 0)  -->
<svg version="1.1" id="Layer_1" xmlns="http://www.w3.org/2000/svg" xmlns:xlink="http://www.w3.org/1999/xlink" x="0px" y="0px"
	 viewBox="0 0 430.7 350" style="enable-background:new 0 0 430.7 350;" xml:space="preserve">
<style type="text/css">
	.st0{opacity:0.44;fill:none;stroke:#4A4A4A;stroke-width:2.8346;stroke-miterlimit:10;}
	.st1{opacity:0.14;fill:#FFFFFF;}
	.st2{fill:#FFFFFF;}
</style>
<g id="Réteg_2">
</g>
<circle class="st0" cx="126.3" cy="175" r="109.8"/>
<g>
	<path class="st1" d="M142.1,171.4c0,3-0.5,5.8-1.4,8.3c-1,2.5-2.3,4.6-4.1,6.4s-3.9,3.2-6.3,4.1c-2.5,1-5.2,1.5-8.2,1.5h-15.2V151
		H122c3,0,5.7,0.5,8.2,1.5s4.6,2.4,6.3,4.1c1.8,1.8,3.1,3.9,4.1,6.4C141.6,165.6,142.1,168.3,142.1,171.4z M136.4,171.4
		c0-2.5-0.3-4.7-1-6.7s-1.6-3.6-2.9-5c-1.2-1.4-2.8-2.4-4.5-3.1c-1.8-0.7-3.8-1.1-6-1.1h-9.7v31.7h9.7c2.2,0,4.2-0.4,6-1.1
		c1.8-0.7,3.3-1.8,4.5-3.1c1.2-1.4,2.2-3,2.9-5C136.1,176.1,136.4,173.9,136.4,171.4z"/>
	<path class="st1" d="M160.3,153.9c0,0.5-0.1,0.9-0.3,1.4c-0.2,0.4-0.5,0.8-0.8,1.1s-0.7,0.6-1.2,0.8c-0.4,0.2-0.9,0.3-1.4,0.3
		s-0.9-0.1-1.4-0.3c-0.4-0.2-0.8-0.4-1.1-0.8c-0.3-0.3-0.6-0.7-0.8-1.1c-0.2-0.4-0.3-0.9-0.3-1.4s0.1-1,0.3-1.4s0.4-0.8,0.8-1.2
		s0.7-0.6,1.1-0.8c0.4-0.2,0.9-0.3,1.4-0.3s1,0.1,1.4,0.3s0.8,0.4,1.2,0.8s0.6,0.7,0.8,1.2S160.3,153.5,160.3,153.9z M159.2,163
		v28.7h-5V163H159.2z"/>
	<path class="st1" d="M189.9,167.7c-0.2,0.4-0.6,0.6-1,0.6c-0.3,0-0.6-0.1-1-0.3s-0.8-0.4-1.3-0.7s-1.1-0.5-1.9-0.7
		c-0.7-0.2-1.6-0.3-2.6-0.3c-0.9,0-1.6,0.1-2.3,0.3s-1.3,0.5-1.7,0.9c-0.5,0.4-0.9,0.8-1.1,1.3c-0.3,0.5-0.4,1-0.4,1.6
		c0,0.7,0.2,1.4,0.6,1.8c0.4,0.5,1,0.9,1.7,1.3s1.5,0.7,2.4,0.9c0.9,0.3,1.8,0.6,2.7,0.9c0.9,0.3,1.8,0.7,2.7,1
		c0.9,0.4,1.7,0.9,2.4,1.4c0.7,0.6,1.3,1.3,1.7,2.1s0.6,1.8,0.6,3c0,1.3-0.2,2.5-0.7,3.7s-1.2,2.1-2.1,2.9c-0.9,0.8-2.1,1.5-3.4,1.9
		s-2.9,0.7-4.6,0.7c-2,0-3.8-0.3-5.4-1c-1.6-0.7-3-1.5-4.1-2.5l1.2-1.9c0.2-0.2,0.3-0.4,0.5-0.6c0.2-0.1,0.5-0.2,0.8-0.2
		s0.7,0.1,1.1,0.4s0.8,0.6,1.4,0.9s1.2,0.6,2,0.9c0.8,0.3,1.7,0.4,2.9,0.4c1,0,1.8-0.1,2.6-0.4c0.7-0.3,1.4-0.6,1.8-1
		s0.9-0.9,1.1-1.5c0.2-0.6,0.4-1.2,0.4-1.8c0-0.8-0.2-1.5-0.6-2c-0.4-0.5-1-1-1.7-1.3c-0.7-0.4-1.5-0.7-2.4-1s-1.8-0.6-2.8-0.9
		c-0.9-0.3-1.9-0.6-2.8-1c-0.9-0.4-1.7-0.9-2.4-1.5s-1.3-1.3-1.7-2.2s-0.6-1.9-0.6-3.1c0-1.1,0.2-2.1,0.7-3.2c0.5-1,1.1-1.9,2-2.7
		s1.9-1.4,3.2-1.8c1.3-0.5,2.7-0.7,4.3-0.7c1.9,0,3.6,0.3,5.1,0.9c1.5,0.6,2.8,1.4,3.9,2.5L189.9,167.7z"/>
	<path class="st2" d="M216.4,149.7c0,0.2-0.1,0.4-0.3,0.6c-0.2,0.1-0.4,0.2-0.6,0.2h-5.3l-5.8,46.9h5.4c0.2,0,0.4,0.1,0.6,0.2
		c0.1,0.2,0.2,0.3,0.1,0.6l-0.1,1h-8.3l6.2-50.4h8.3L216.4,149.7z"/>
	<path class="st2" d="M222.6,180c0-3,1.1-5.7,3.3-8c2.7-2.8,5.9-4.3,9.7-4.3c3.7,0,7,1.4,9.6,4.3c2.2,2.4,3.3,5,3.3,8
		s-1.1,5.6-3.2,7.9c-2.6,2.8-5.9,4.3-9.8,4.3c-4,0-7.2-1.4-9.8-4.3c-1-1.1-1.8-2.3-2.3-3.7C222.9,182.8,222.6,181.4,222.6,180z
		 M227.6,179.7c0,3.2,0.7,5.9,2.2,8.2c1.6,2.5,3.6,3.7,6,3.7c1,0,2-0.3,2.9-0.8s1.8-1.3,2.4-2.3c0.7-1,1.3-2.3,1.7-3.9
		c0.4-1.6,0.7-3.1,0.7-4.5c0-1.5-0.2-3-0.7-4.6s-1.1-2.9-1.9-4c-1.5-2.1-3.4-3.1-5.6-3.1c-2.1,0-3.9,1.1-5.4,3.3
		C228.4,173.8,227.6,176.5,227.6,179.7z"/>
	<path class="st2" d="M264.6,172c0.7-1.2,1.4-2,2.2-2.6c1.5-1.1,3.3-1.6,5.2-1.6c1.2,0,2.1,0.3,2.7,0.8s0.9,1.1,0.9,1.8
		c0,0.5-0.2,0.9-0.5,1.3c-0.3,0.3-0.8,0.5-1.3,0.5c-0.6,0-1.2-0.3-1.6-0.8l-0.9-0.9c-0.7-0.7-1.5-1.1-2.4-1.1
		c-1.3,0-2.2,0.8-2.9,2.4s-1.1,3.9-1.1,6.8v5.2v2.1c0,1.3,0.1,2.2,0.2,2.8s0.4,1.1,0.9,1.5c0.5,0.5,1.5,0.9,2.9,1.1v0.6h-12.2v-0.6
		c1.1-0.1,1.9-0.4,2.4-0.6s0.9-0.7,1.2-1.4c0.2-0.4,0.3-1.1,0.4-1.9c0.1-0.9,0.1-2.1,0.1-3.7v-6.8c0-1.9,0-3.2-0.1-4
		s-0.3-1.4-0.6-1.9c-0.3-0.5-0.7-0.9-1.1-1.1c-0.4-0.2-1.1-0.4-1.9-0.4v-0.6l7.1-1C264.4,169.4,264.6,170.8,264.6,172z"/>
	<path class="st2" d="M302.1,192.6c-0.2-0.9-0.3-1.9-0.3-2.9c-1.4,0.9-2.6,1.5-3.9,1.9c-1.2,0.4-2.5,0.6-3.9,0.6
		c-2.8,0-5.2-0.8-7.2-2.5c-1.3-1.1-2.2-2.4-2.9-4c-0.7-1.6-1-3.4-1-5.3c0-2,0.4-3.9,1.1-5.6s1.8-3.2,3.1-4.3
		c2.1-1.8,4.6-2.7,7.5-2.7c1.4,0,2.6,0.2,3.6,0.6c1,0.4,2.2,1.1,3.5,2.2v-10.2c0-2-0.3-3.4-1-4.3s-1.8-1.3-3.3-1.3V154l8.5-1.1v32
		c0,2.1,0.3,3.6,1,4.5s1.8,1.3,3.3,1.3v0.7L302.1,192.6z M301.7,179.7c0-2.6-0.1-4.5-0.3-5.8c-0.2-1.3-0.6-2.3-1.2-3.1
		c-0.5-0.7-1.2-1.3-2-1.7s-1.7-0.6-2.6-0.6c-2,0-3.7,0.9-5.1,2.8c-0.9,1.1-1.5,2.4-2,4c-0.5,1.5-0.7,3.1-0.7,4.7
		c0,1.6,0.2,3.1,0.7,4.7s1.1,2.8,1.9,3.9c1.4,1.9,3.1,2.8,5.1,2.8c1,0,1.9-0.2,2.7-0.7c0.9-0.5,1.6-1.1,2.1-2c0.6-0.9,0.9-2,1.2-3.3
		S301.7,182.2,301.7,179.7z"/>
	<path class="st2" d="M323.3,176.6c-0.1,0.9-0.1,1.6-0.1,2c0,1.6,0.2,3.2,0.7,4.7s1.1,2.8,1.9,3.8s1.9,1.8,3.1,2.4s2.5,0.9,3.8,0.9
		c1,0,1.9-0.2,2.8-0.5s1.6-0.8,2.2-1.4c0.7-0.6,1.2-1.7,1.7-3.1l0.6,0.2c-0.5,2.2-1.5,3.8-3.1,4.9s-3.7,1.6-6.3,1.6
		c-2.3,0-4.2-0.4-5.8-1.1s-3-1.8-4.1-3.3c-1.6-2.1-2.4-4.7-2.4-7.7c0-4.2,1.5-7.4,4.5-9.8c2.2-1.7,4.6-2.6,7.4-2.6
		c1.5,0,2.8,0.3,4.1,0.8c1.3,0.5,2.3,1.3,3.2,2.3c1.3,1.5,2,3.5,2,5.8h-16.2V176.6z M335.3,175.5c-0.1-1.8-0.5-3.3-1-4.3
		c-0.5-0.9-1.2-1.6-2-2.1s-1.7-0.8-2.6-0.8c-1.6,0-3,0.7-4.1,2c-1.2,1.4-1.9,3.1-2.1,5.1h11.8V175.5z"/>
	<path class="st2" d="M356.5,172c0.7-1.2,1.4-2,2.2-2.6c1.5-1.1,3.3-1.6,5.2-1.6c1.2,0,2.1,0.3,2.7,0.8s0.9,1.1,0.9,1.8
		c0,0.5-0.2,0.9-0.5,1.3c-0.3,0.3-0.8,0.5-1.3,0.5c-0.6,0-1.2-0.3-1.6-0.8l-0.9-0.9c-0.7-0.7-1.5-1.1-2.4-1.1
		c-1.3,0-2.2,0.8-2.9,2.4s-1.1,3.9-1.1,6.8v5.2v2.1c0,1.3,0.1,2.2,0.2,2.8s0.4,1.1,0.9,1.5c0.5,0.5,1.5,0.9,2.9,1.1v0.6h-12.2v-0.6
		c1.1-0.1,1.9-0.4,2.4-0.6s0.9-0.7,1.2-1.4c0.2-0.4,0.3-1.1,0.4-1.9c0.1-0.9,0.1-2.1,0.1-3.7v-6.8c0-1.9,0-3.2-0.1-4
		s-0.3-1.4-0.6-1.9c-0.3-0.5-0.7-0.9-1.1-1.1c-0.4-0.2-1.1-0.4-1.9-0.4v-0.6l7.1-1C356.4,169.4,356.5,170.8,356.5,172z"/>
	<path class="st2" d="M384.3,199.2h-9v-1c0-0.2,0.1-0.4,0.2-0.6c0.2-0.2,0.4-0.2,0.6-0.2h5.8v-46.8h-5.8c-0.3,0-0.5-0.1-0.6-0.2
		c-0.2-0.2-0.2-0.3-0.2-0.6v-1h9V199.2z"/>
	<path class="st2" d="M402.7,185.4c0.9,0,1.7,0.3,2.4,1s1,1.5,1,2.4s-0.3,1.7-1,2.4s-1.4,1-2.4,1c-0.9,0-1.7-0.3-2.4-1
		c-0.7-0.7-1-1.4-1-2.4c0-0.9,0.3-1.7,1-2.4S401.8,185.4,402.7,185.4z"/>
</g>
</svg>
