<?xml version="1.0" encoding="utf-8"?>
<!-- Generator: Adobe Illustrator 22.0.0, SVG Export Plug-In . SVG Version: 6.00 Build 0)  -->
<svg version="1.1" id="Layer_1" xmlns="http://www.w3.org/2000/svg" xmlns:xlink="http://www.w3.org/1999/xlink" x="0px" y="0px"
	 viewBox="0 0 350 494" style="enable-background:new 0 0 350 494;" xml:space="preserve">
<style type="text/css">
	.st0 {
		fill: #FFFFFF;
	}
</style>
<g id="street-sphere-main-logo">
</g>
<g>
	<line class="st0" x1="298.5" y1="125" x2="51.5" y2="372"/>
	<path class="st0" d="M298.5,125c-19.3,21.8-39.3,43.1-59.4,64.1c-20.1,21.1-40.5,41.8-61.1,62.4c-20.6,20.6-41.3,41-62.4,61.1
		c-21,20.1-42.3,40.1-64.1,59.4c19.3-21.8,39.3-43.1,59.4-64.1c20.1-21.1,40.5-41.8,61.1-62.4c20.6-20.6,41.4-41,62.4-61.1
		C255.4,164.2,276.7,144.3,298.5,125z"/>
</g>
<g>
	<line class="st0" x1="51.5" y1="125" x2="298.5" y2="372"/>
	<path class="st0" d="M51.5,125c21.8,19.3,43.1,39.3,64.1,59.4c21.1,20.1,41.8,40.5,62.4,61.1c20.6,20.6,41,41.3,61.1,62.4
		c20.1,21,40.1,42.3,59.4,64.1c-21.8-19.3-43.1-39.3-64.1-59.4c-21.1-20.1-41.8-40.5-62.4-61.1c-20.6-20.6-41-41.4-61.1-62.4
		C90.8,168,70.8,146.8,51.5,125z"/>
</g>
<g>
	<g>
		<path class="st0" d="M165.1,164.3c-3.5-1.2-6.2-2.7-8.2-4.5l2.6-5.5c1.9,1.7,4.3,3.1,7.3,4.1c3,1.1,6,1.6,9.1,1.6
			c4.1,0,7.2-0.7,9.2-2.1c2-1.4,3-3.2,3-5.6c0-1.7-0.6-3.1-1.7-4.1c-1.1-1.1-2.5-1.9-4.1-2.4s-3.9-1.2-6.9-1.9
			c-3.7-0.9-6.7-1.8-9-2.7c-2.3-0.9-4.3-2.3-5.9-4.1c-1.6-1.9-2.4-4.4-2.4-7.5c0-2.6,0.7-5,2.1-7.2c1.4-2.1,3.5-3.8,6.3-5.1
			c2.8-1.3,6.4-1.9,10.6-1.9c2.9,0,5.8,0.4,8.6,1.1c2.8,0.8,5.3,1.8,7.3,3.3l-2.3,5.7c-2.1-1.3-4.3-2.3-6.7-3c-2.4-0.7-4.7-1-6.9-1
			c-4,0-7,0.7-9,2.2c-2,1.5-3,3.4-3,5.7c0,1.7,0.6,3.1,1.7,4.1s2.5,1.9,4.2,2.5c1.7,0.6,4,1.2,6.8,1.9c3.7,0.9,6.7,1.8,9,2.7
			c2.3,0.9,4.2,2.3,5.8,4.1c1.6,1.8,2.4,4.3,2.4,7.4c0,2.6-0.7,5-2.1,7.1c-1.4,2.2-3.6,3.9-6.4,5.1c-2.9,1.3-6.4,1.9-10.6,1.9
			C172.2,166,168.6,165.4,165.1,164.3z"/>
		<g>
			<path class="st0" d="M165.1,164.3c-3-1-5.9-2.4-8.2-4.5l0,0l0,0l2.6-5.5l0,0l0,0c1.8,1.6,4,2.9,6.3,3.8c2.3,0.9,4.7,1.5,7.2,1.8
				c2.5,0.2,4.9,0.2,7.4-0.2c2.4-0.4,4.8-1.4,6.3-3.3c0.7-1,1.2-2.1,1.2-3.3c0.1-1.2-0.1-2.4-0.8-3.5c-0.6-1-1.6-1.8-2.7-2.4
				c-1-0.6-2.2-1-3.4-1.4c-2.4-0.7-4.8-1.3-7.2-1.8c-2.4-0.6-4.8-1.3-7.1-2.1c-2.4-0.8-4.6-2.2-6.3-4.1c-0.9-0.9-1.6-2-2-3.2
				c-0.5-1.2-0.7-2.5-0.8-3.7c-0.2-2.5,0.2-5.1,1.4-7.4c1.2-2.3,3.1-4.1,5.3-5.4c2.2-1.3,4.6-2.1,7.1-2.5c2.5-0.4,5-0.5,7.5-0.4
				c2.5,0.1,5,0.6,7.4,1.3c2.4,0.7,4.8,1.7,6.8,3.2l0.3,0.2l-0.1,0.4l-2.4,5.7l-0.2,0.5l-0.5-0.3c-3.8-2.4-8.2-3.8-12.7-4
				c-2.2-0.1-4.5,0.1-6.6,0.7c-2.1,0.6-4.1,1.9-5.1,3.8c-0.9,1.9-1,4.4,0.3,6.1c1.4,1.7,3.5,2.7,5.6,3.4c2.2,0.7,4.4,1.2,6.6,1.8
				c2.2,0.6,4.4,1.2,6.6,1.9c1.1,0.4,2.2,0.8,3.2,1.3c1,0.5,2,1.2,2.8,2c0.9,0.8,1.7,1.6,2.3,2.6c0.6,1,1.1,2.1,1.3,3.2
				c0.5,2.2,0.5,4.6-0.1,6.8c-0.6,2.2-1.8,4.3-3.5,5.8c-1.7,1.6-3.7,2.7-5.9,3.4c-2.2,0.8-4.4,1.1-6.7,1.3
				C174,166.3,169.4,165.8,165.1,164.3z M165.1,164.3c4.3,1.4,9,2,13.5,1.6c2.3-0.2,4.5-0.6,6.7-1.3c2.1-0.8,4.2-1.9,5.8-3.4
				c1.7-1.6,2.9-3.6,3.4-5.8c0.6-2.2,0.6-4.5,0.1-6.7c-0.3-1.1-0.7-2.2-1.3-3.1c-0.6-0.9-1.4-1.7-2.3-2.5c-1.7-1.5-3.8-2.5-6-3.1
				c-2.2-0.7-4.4-1.3-6.6-1.8c-2.2-0.5-4.5-1-6.6-1.7c-2.2-0.7-4.4-1.7-6-3.5c-0.8-1-1.1-2.2-1.2-3.4c-0.1-1.2,0.2-2.4,0.7-3.5
				c1.1-2.2,3.2-3.6,5.5-4.3c2.3-0.7,4.6-0.8,6.9-0.8c4.6,0.2,9.2,1.6,13.2,4.1l-0.7,0.2l2.3-5.7l0.2,0.6c-2-1.4-4.2-2.3-6.6-3
				c-2.3-0.7-4.8-1.1-7.2-1.2c-4.8-0.2-9.9,0.2-14.1,2.7c-2.1,1.2-3.9,2.9-5,5c-1.1,2.1-1.5,4.5-1.4,7c0.1,2.4,0.9,4.8,2.6,6.5
				c1.6,1.8,3.7,3.2,6,4c2.3,0.9,4.7,1.6,7.1,2.2c2.4,0.6,4.8,1.2,7.2,1.9c2.4,0.7,4.8,1.9,6.2,4c0.7,1.1,0.9,2.4,0.8,3.7
				c-0.1,1.3-0.5,2.5-1.3,3.5c-1.6,2-4.1,3-6.5,3.4c-2.5,0.4-5,0.4-7.4,0.2c-2.5-0.3-4.9-0.9-7.2-1.8c-2.3-0.9-4.5-2.2-6.3-3.8
				l0.1,0l-2.6,5.5l0,0C159.2,161.9,162.1,163.3,165.1,164.3z"/>
		</g>
	</g>
</g>
<g>
	<g>
		<path class="st0" d="M259.4,272.1c-3.5-1.2-6.2-2.7-8.2-4.5l2.6-5.5c1.9,1.7,4.3,3.1,7.3,4.1c3,1.1,6,1.6,9.1,1.6
			c4.1,0,7.2-0.7,9.2-2.1c2-1.4,3-3.2,3-5.6c0-1.7-0.6-3.1-1.7-4.1c-1.1-1.1-2.5-1.9-4.1-2.4s-3.9-1.2-6.9-1.9
			c-3.7-0.9-6.7-1.8-9-2.7c-2.3-0.9-4.3-2.3-5.9-4.1c-1.6-1.9-2.4-4.4-2.4-7.5c0-2.6,0.7-5,2.1-7.2c1.4-2.1,3.5-3.8,6.3-5.1
			c2.8-1.3,6.4-1.9,10.6-1.9c2.9,0,5.8,0.4,8.6,1.1c2.8,0.8,5.3,1.8,7.3,3.3l-2.3,5.7c-2.1-1.3-4.3-2.3-6.7-3c-2.4-0.7-4.7-1-6.9-1
			c-4,0-7,0.7-9,2.2c-2,1.5-3,3.4-3,5.7c0,1.7,0.6,3.1,1.7,4.1s2.5,1.9,4.2,2.5c1.7,0.6,4,1.2,6.8,1.9c3.7,0.9,6.7,1.8,9,2.7
			c2.3,0.9,4.2,2.3,5.8,4.1c1.6,1.8,2.4,4.3,2.4,7.4c0,2.6-0.7,5-2.1,7.1c-1.4,2.2-3.6,3.9-6.4,5.1c-2.9,1.3-6.4,1.9-10.6,1.9
			C266.4,273.8,262.8,273.3,259.4,272.1z"/>
		<g>
			<path class="st0" d="M259.4,272.1c-3-1-5.9-2.4-8.2-4.5l0,0l0,0l2.6-5.5l0,0l0,0c1.8,1.6,4,2.9,6.3,3.8c2.3,0.9,4.7,1.5,7.2,1.8
				c2.5,0.2,4.9,0.2,7.4-0.2c2.4-0.4,4.8-1.4,6.3-3.3c0.7-1,1.2-2.1,1.2-3.3c0.1-1.2-0.1-2.4-0.8-3.5c-0.6-1-1.6-1.8-2.7-2.4
				c-1-0.6-2.2-1-3.4-1.4c-2.4-0.7-4.8-1.3-7.2-1.8c-2.4-0.6-4.8-1.3-7.1-2.1c-2.4-0.8-4.6-2.2-6.3-4.1c-0.9-0.9-1.6-2-2-3.2
				c-0.5-1.2-0.7-2.5-0.8-3.7c-0.2-2.5,0.2-5.1,1.4-7.4c1.2-2.3,3.1-4.1,5.3-5.4c2.2-1.3,4.6-2.1,7.1-2.5c2.5-0.4,5-0.5,7.5-0.4
				c2.5,0.1,5,0.6,7.4,1.3c2.4,0.7,4.8,1.7,6.8,3.2l0.3,0.2l-0.1,0.4l-2.4,5.7l-0.2,0.5l-0.5-0.3c-3.8-2.4-8.2-3.8-12.7-4
				c-2.2-0.1-4.5,0.1-6.6,0.7c-2.1,0.6-4.1,1.9-5.1,3.8c-0.9,1.9-1,4.4,0.3,6.1c1.4,1.7,3.5,2.7,5.6,3.4c2.2,0.7,4.4,1.2,6.6,1.8
				c2.2,0.6,4.4,1.2,6.6,1.9c1.1,0.4,2.2,0.8,3.2,1.3c1,0.5,2,1.2,2.8,2c0.9,0.8,1.7,1.6,2.3,2.6c0.6,1,1.1,2.1,1.3,3.2
				c0.5,2.2,0.5,4.6-0.1,6.8c-0.6,2.2-1.8,4.3-3.5,5.8c-1.7,1.6-3.7,2.7-5.9,3.4c-2.2,0.8-4.4,1.1-6.7,1.3
				C268.3,274.1,263.7,273.6,259.4,272.1z M259.4,272.1c4.3,1.4,9,2,13.5,1.6c2.3-0.2,4.5-0.6,6.7-1.3c2.1-0.8,4.2-1.9,5.8-3.4
				c1.7-1.6,2.9-3.6,3.4-5.8c0.6-2.2,0.6-4.5,0.1-6.7c-0.3-1.1-0.7-2.2-1.3-3.1c-0.6-0.9-1.4-1.7-2.3-2.5c-1.7-1.5-3.8-2.5-6-3.1
				c-2.2-0.7-4.4-1.3-6.6-1.8c-2.2-0.5-4.5-1-6.6-1.7c-2.2-0.7-4.4-1.7-6-3.5c-0.8-1-1.1-2.2-1.2-3.4c-0.1-1.2,0.2-2.4,0.7-3.5
				c1.1-2.2,3.2-3.6,5.5-4.3c2.3-0.7,4.6-0.8,6.9-0.8c4.6,0.2,9.2,1.6,13.2,4.1l-0.7,0.2l2.3-5.7l0.2,0.6c-2-1.4-4.2-2.3-6.6-3
				c-2.3-0.7-4.8-1.1-7.2-1.2c-4.8-0.2-9.9,0.2-14.1,2.7c-2.1,1.2-3.9,2.9-5,5c-1.1,2.1-1.5,4.5-1.4,7c0.1,2.4,0.9,4.8,2.6,6.5
				c1.6,1.8,3.7,3.2,6,4c2.3,0.9,4.7,1.6,7.1,2.2c2.4,0.6,4.8,1.2,7.2,1.9c2.4,0.7,4.8,1.9,6.2,4c0.7,1.1,0.9,2.4,0.8,3.7
				c-0.1,1.3-0.5,2.5-1.3,3.5c-1.6,2-4.1,3-6.5,3.4c-2.5,0.4-5,0.4-7.4,0.2c-2.5-0.3-4.9-0.9-7.2-1.8c-2.3-0.9-4.5-2.2-6.3-3.8
				l0.1,0l-2.6,5.5l0,0C253.5,269.7,256.4,271.1,259.4,272.1z"/>
		</g>
	</g>
</g>
<g>
	<g>
		<path class="st0" d="M153.4,320.9h20.9c5.2,0,9.9,1,14,3.1c4.1,2.1,7.2,5,9.5,8.8c2.2,3.8,3.4,8.1,3.4,12.9s-1.1,9.2-3.4,12.9
			c-2.2,3.8-5.4,6.7-9.5,8.8c-4.1,2.1-8.7,3.1-14,3.1h-20.9V320.9z M173.9,364.3c4,0,7.5-0.8,10.6-2.3c3-1.6,5.4-3.7,7.1-6.6
			c1.7-2.8,2.5-6.1,2.5-9.7c0-3.7-0.8-6.9-2.5-9.7c-1.7-2.8-4-5-7.1-6.6c-3-1.6-6.6-2.3-10.6-2.3h-13.4v37.3H173.9z"/>
		<g>
			<path class="st0" d="M153.4,320.9l15.5-0.2c2.6,0,5.2-0.1,7.8,0c2.6,0.1,5.2,0.6,7.7,1.3c5,1.5,9.6,4.5,12.7,8.8
				c1.6,2.1,2.7,4.5,3.5,7c0.7,2.5,1.1,5.1,1.1,7.8c0,2.6-0.3,5.2-1.1,7.8c-0.7,2.5-1.9,4.9-3.4,7.1c-1.5,2.1-3.4,4-5.6,5.5
				c-2.2,1.5-4.6,2.6-7.1,3.4c-2.5,0.8-5.1,1.2-7.7,1.4c-2.6,0.1-5.2,0-7.8,0.1l-15.5,0l-0.4,0l0-0.4l0.2-24.9L153.4,320.9z
				 M153.4,320.9l0.2,24.9l0.2,24.7l-0.4-0.4l15.5,0c2.6,0,5.2,0.1,7.7-0.1c2.5-0.2,5.1-0.6,7.5-1.4c4.8-1.6,9.2-4.5,12.2-8.6
				c1.5-2,2.6-4.4,3.3-6.8c0.7-2.4,1-5,1.1-7.5c0-2.5-0.3-5.1-1-7.5c-0.7-2.4-1.8-4.7-3.3-6.8c-2.9-4.2-7.4-7.1-12.2-8.7
				c-2.4-0.8-5-1.2-7.5-1.4c-2.6-0.2-5.1-0.1-7.7-0.2L153.4,320.9z"/>
			<path class="st0" d="M173.9,364.3c3.1,0,6.3-0.5,9.2-1.7c2.9-1.2,5.5-3.1,7.3-5.6c1.9-2.5,2.9-5.5,3.3-8.6c0.3-3.1,0.1-6.2-1-9.2
				c-1-2.9-2.9-5.5-5.2-7.4c-2.4-1.9-5.3-3.2-8.3-3.8c-1.5-0.3-3-0.5-4.6-0.5l-4.7,0l-9.4,0l0.4-0.4c0,6.2-0.1,12.4-0.2,18.6
				c-0.1,6.2-0.2,12.4-0.2,18.6l-0.1-0.1L173.9,364.3z M173.9,364.3l-13.4,0.1l-0.1,0l0-0.1c0-6.2-0.1-12.4-0.2-18.6
				c-0.1-6.2-0.2-12.4-0.2-18.6l0-0.4l0.4,0l9.4,0c1.6,0,3.1,0,4.7,0c1.6,0,3.2,0.2,4.7,0.5c3.1,0.7,6.1,2,8.6,4
				c2.5,2,4.3,4.8,5.3,7.9c1,3,1.2,6.3,0.8,9.4c-0.4,3.1-1.6,6.2-3.5,8.7c-1.9,2.5-4.6,4.4-7.5,5.6
				C180.2,363.8,177,364.3,173.9,364.3z"/>
		</g>
	</g>
</g>
<g>
	<g>
		<path class="st0" d="M82,260.4H55.7l-5.5,12.4h-7.3l22.5-49.6h7l22.5,49.6h-7.4L82,260.4z M79.6,254.8l-10.7-24.3l-10.7,24.3H79.6
			z"/>
		<g>
			<path class="st0" d="M82,260.4l-26.4,0.3l0.2-0.2L50.5,273l-0.1,0.2l-0.2,0l-7.3,0l-0.6,0l0.2-0.6l11.2-24.8L65,223l0.1-0.3
				l0.3,0l7,0l0.3,0l0.1,0.3L84,247.9l11.1,24.9l0.1,0.3l-0.3,0l-7.4-0.1l-0.1,0l0-0.1L82,260.4z M82,260.4l5.6,12.3l-0.1-0.1
				l7.4-0.1l-0.2,0.3l-11.4-24.7L72,223.4l0.4,0.3l-7,0l0.4-0.3l-11.2,24.8L43.3,273l-0.4-0.6l7.3,0l-0.3,0.2l5.5-12.4l0.1-0.2
				l0.2,0L82,260.4z"/>
			<path class="st0" d="M79.6,254.8l-5.7-12.2l-2.8-6c-0.9-2-1.8-4-2.7-6h0.8c-1.8,4.1-3.5,8.1-5.3,12.2l-5.4,12.1l-0.4-0.6
				L79.6,254.8z M79.6,254.8L69,255l-10.8,0.2l-0.7,0l0.3-0.6l5.3-12.2c1.8-4.1,3.6-8.1,5.4-12.1l0.4-0.9l0.4,0.9
				c0.9,2.1,1.8,4.1,2.7,6.2l2.6,6.2L79.6,254.8z"/>
		</g>
	</g>
</g>
<g>
	<g>
		<path class="st0" d="M63.8,83.7c-2.1-0.7-3.7-1.6-4.9-2.7l1.6-3.3c1.1,1,2.6,1.8,4.4,2.5c1.8,0.6,3.6,1,5.5,1
			c2.5,0,4.3-0.4,5.5-1.3s1.8-1.9,1.8-3.3c0-1-0.3-1.8-1-2.5s-1.5-1.1-2.5-1.5s-2.4-0.7-4.1-1.1c-2.2-0.5-4-1.1-5.4-1.6
			c-1.4-0.5-2.6-1.4-3.5-2.5s-1.5-2.6-1.5-4.5c0-1.6,0.4-3,1.3-4.3c0.8-1.3,2.1-2.3,3.8-3.1s3.8-1.1,6.3-1.1c1.8,0,3.5,0.2,5.2,0.7
			c1.7,0.5,3.2,1.1,4.4,2l-1.4,3.4c-1.2-0.8-2.6-1.4-4-1.8c-1.4-0.4-2.8-0.6-4.2-0.6c-2.4,0-4.2,0.4-5.4,1.3c-1.2,0.9-1.8,2-1.8,3.4
			c0,1,0.3,1.8,1,2.5c0.7,0.6,1.5,1.1,2.5,1.5c1,0.4,2.4,0.7,4.1,1.1c2.2,0.5,4,1.1,5.4,1.6c1.4,0.5,2.5,1.4,3.5,2.5
			s1.5,2.6,1.5,4.5c0,1.6-0.4,3-1.3,4.3c-0.9,1.3-2.1,2.3-3.9,3.1c-1.7,0.8-3.9,1.1-6.4,1.1C68.1,84.7,65.9,84.4,63.8,83.7z"/>
		<g>
			<path class="st0" d="M63.8,83.7c-1.8-0.6-3.5-1.4-4.9-2.7l0,0l0,0l1.6-3.3l0,0l0,0c1.1,1,2.4,1.7,3.8,2.3
				c1.4,0.5,2.8,0.9,4.3,1.1c1.5,0.1,3,0.1,4.4-0.2c1.4-0.3,2.9-0.8,3.8-2c0.9-1.1,1-2.8,0.3-4c-0.4-0.6-1-1-1.6-1.4
				c-0.6-0.4-1.3-0.6-2-0.8c-1.4-0.4-2.8-0.8-4.3-1.1c-1.4-0.4-2.9-0.7-4.3-1.3c-1.4-0.5-2.8-1.3-3.8-2.5c-1.1-1.1-1.7-2.7-1.8-4.3
				c-0.1-1.5,0.1-3.1,0.9-4.5c0.7-1.4,1.9-2.5,3.2-3.3c1.3-0.8,2.8-1.3,4.3-1.5c1.5-0.3,3-0.3,4.5-0.2c3,0.2,6.1,0.9,8.7,2.7
				l0.3,0.2l-0.1,0.4l-1.4,3.4L79.4,61L79,60.7c-2.2-1.4-4.9-2.3-7.5-2.4c-1.3,0-2.7,0.1-3.9,0.4c-1.2,0.3-2.4,1.1-3,2.2
				C64,62,64,63.5,64.7,64.5c0.8,1,2,1.6,3.3,2c1.3,0.4,2.6,0.8,3.9,1.1c1.3,0.3,2.7,0.7,4,1.2c1.3,0.4,2.6,1.1,3.6,2
				c0.5,0.5,1,1,1.4,1.6c0.4,0.6,0.6,1.3,0.8,1.9c0.3,1.4,0.3,2.8-0.1,4.1c-0.4,1.3-1.1,2.6-2.1,3.5c-2.1,1.9-4.9,2.7-7.6,2.8
				C69.2,84.9,66.4,84.6,63.8,83.7z M63.8,83.7c2.6,0.9,5.4,1.2,8.1,1c2.7-0.2,5.5-1,7.5-2.9c1-0.9,1.7-2.1,2.1-3.5
				c0.3-1.3,0.3-2.7,0-4c-0.2-0.7-0.4-1.3-0.8-1.8c-0.4-0.6-0.9-1-1.4-1.5c-1-0.9-2.3-1.4-3.6-1.9c-1.3-0.4-2.6-0.8-3.9-1.1
				c-1.3-0.3-2.7-0.7-4-1c-1.3-0.3-2.7-1-3.6-2.1c-0.5-0.6-0.7-1.4-0.7-2.1c0-0.7,0.1-1.5,0.4-2.2c0.7-1.4,2-2.2,3.4-2.7
				c1.4-0.4,2.8-0.5,4.2-0.5c2.8,0.1,5.6,1,8,2.5l-0.7,0.2l1.4-3.4l0.2,0.6C78,55.7,75,55,72.2,54.8c-2.9-0.1-5.9,0.1-8.4,1.6
				c-1.2,0.7-2.3,1.7-2.9,3c-0.7,1.2-0.9,2.7-0.8,4.1c0.1,1.4,0.5,2.8,1.5,3.8c1,1.1,2.2,1.9,3.5,2.4c2.7,1,5.7,1.6,8.5,2.5
				c1.4,0.4,2.9,1.1,3.8,2.4c0.4,0.7,0.5,1.5,0.5,2.3c-0.1,0.8-0.3,1.5-0.8,2.1c-1,1.2-2.5,1.8-4,2c-1.5,0.2-3,0.2-4.5,0.1
				c-1.5-0.2-2.9-0.5-4.3-1.1c-1.4-0.6-2.7-1.3-3.8-2.3l0.1,0L58.9,81l0,0C60.3,82.2,62.1,83.1,63.8,83.7z"/>
		</g>
	</g>
	<g>
		<path class="st0" d="M108,58.3H97.8v-3.7h24.6v3.7h-10.2v26.1H108V58.3z"/>
		<g>
			<path class="st0" d="M108,58.3l-10.2,0.2l-0.2,0l0-0.2l-0.1-3.7l0-0.2l0.3,0c8.2-0.1,16.4-0.2,24.6-0.2l0.4,0l0,0.4l0,3.7l0,0.5
				l-0.5,0l-10.2,0l0.5-0.5l-0.1,26.1l0,0.4l-0.4,0l-4.2,0l-0.4,0l0-0.4l0.2-12.9L108,58.3z M108,58.3l0.2,12.9l0.2,13.1L108,84
				l4.2,0l-0.4,0.4l-0.1-26.1l0-0.5l0.5,0l10.2,0l-0.5,0.5l0-3.7l0.4,0.4c-8.2,0-16.4-0.1-24.6-0.2l0.2-0.2L98,58.3l-0.2-0.2
				L108,58.3z"/>
		</g>
	</g>
	<g>
		<path class="st0" d="M161.4,84.4l-6.4-9.1c-0.8,0.1-1.4,0.1-1.9,0.1h-7.4v9.1h-4.3V54.6h11.6c3.9,0,6.9,0.9,9.1,2.8
			c2.2,1.8,3.3,4.4,3.3,7.6c0,2.3-0.6,4.3-1.7,5.9c-1.1,1.6-2.8,2.8-4.8,3.5l7.1,10H161.4z M159.1,70c1.4-1.2,2.1-2.8,2.1-5
			s-0.7-3.8-2.1-5c-1.4-1.1-3.5-1.7-6.2-1.7h-7.2v13.4h7.2C155.7,71.7,157.7,71.1,159.1,70z"/>
		<g>
			<path class="st0" d="M161.4,84.4l-6.6-9l0.2,0.1c-0.8,0-1.5,0.1-2.3,0.1l-2.3,0l-4.6,0l0.3-0.3l0.1,9.1l0,0.4l-0.4,0l-4.3,0
				l-0.4,0l0-0.4L141,54.6l0-0.5l0.5,0l10.6,0c1.7,0,3.6,0,5.3,0.5c1.8,0.4,3.5,1.1,4.9,2.3c1.4,1.1,2.6,2.7,3.1,4.5
				c0.5,1.8,0.6,3.6,0.4,5.4c-0.3,1.8-1,3.5-2.2,4.9c-1.2,1.4-2.8,2.4-4.5,2.9l0.1-0.4l6.9,10.1l0.1,0.1l-0.2,0L161.4,84.4z
				 M161.4,84.4l4.6-0.1l-0.1,0.1l-7.2-9.9l-0.2-0.3l0.3-0.1c1.6-0.6,3.1-1.5,4.2-2.8c1.1-1.3,1.8-2.9,2-4.6c0.2-1.7,0.1-3.4-0.4-5
				c-0.5-1.6-1.5-3-2.9-4.1c-1.3-1.1-2.9-1.7-4.6-2.1c-1.7-0.4-3.4-0.4-5.1-0.4l-10.6,0l0.5-0.5l-0.1,29.8l-0.4-0.4l4.3,0l-0.4,0.4
				l0.1-9.1l0-0.3l0.3,0l4.6,0l2.3,0c0.8,0,1.5,0,2.3-0.1l0.1,0l0.1,0.1L161.4,84.4z"/>
			<path class="st0" d="M159.1,70c0.8-0.7,1.4-1.5,1.7-2.5c0.3-1,0.4-2,0.3-3.1c-0.1-1-0.4-2-1-2.9c-0.6-0.8-1.4-1.5-2.3-1.9
				c-1.8-0.9-3.9-0.9-6-0.8c-2.1,0-4.2,0.1-6.2,0.1l0.5-0.5c0,2.2,0,4.5,0,6.7c0,2.2-0.1,4.5-0.2,6.7l-0.3-0.3l6.9,0.2
				c1.1,0,2.3,0,3.4-0.3C157.2,71.1,158.2,70.7,159.1,70z M159.1,70c-0.9,0.7-2,1.2-3.1,1.5c-1.1,0.3-2.3,0.4-3.4,0.4l-6.9,0.2
				l-0.3,0l0-0.3c-0.1-2.2-0.1-4.5-0.2-6.7c0-2.2-0.1-4.5,0-6.7l0-0.5l0.5,0c2.1,0,4.2,0,6.2,0.1c2.1,0,4.3,0.2,6.2,1.2
				c0.9,0.5,1.8,1.3,2.3,2.2c0.5,0.9,0.8,2,0.8,3c0.1,1-0.1,2.1-0.4,3.1C160.6,68.4,159.9,69.3,159.1,70z"/>
		</g>
	</g>
	<g>
		<path class="st0" d="M208.5,80.7v3.7h-21.6V54.6h21v3.7h-16.8v9.1H206v3.6h-14.9v9.6H208.5z"/>
		<g>
			<path class="st0" d="M208.5,80.7l0,3.7l0,0l0,0l-21.6,0.2l-0.3,0l0-0.3c-0.1-9.9-0.2-19.8-0.2-29.8l0-0.4l0.4,0l21,0l0.5,0l0,0.5
				l0,3.7l0,0.5l-0.5,0l-16.8,0l0.5-0.5l0,9.1l-0.5-0.5l14.9,0l0.4,0l0,0.4l0,3.6l0,0.4l-0.4,0l-14.9-0.1l0.3-0.3l-0.1,9.6l-0.2-0.2
				L208.5,80.7z M208.5,80.7l-17.3,0.2l-0.2,0l0-0.2l-0.1-9.6l0-0.3l0.3,0l14.9-0.1l-0.4,0.4l0-3.6l0.4,0.4l-14.9,0l-0.5,0l0-0.5
				l0-9.1l0-0.5l0.5,0l16.8,0l-0.5,0.5l0-3.7l0.5,0.5l-21,0l0.4-0.4c0,9.9-0.1,19.8-0.2,29.8l-0.3-0.3l21.6,0.2l0,0L208.5,80.7z"/>
		</g>
	</g>
	<g>
		<path class="st0" d="M251.4,80.7v3.7h-21.6V54.6h21v3.7h-16.8v9.1H249v3.6h-14.9v9.6H251.4z"/>
		<g>
			<path class="st0" d="M251.4,80.7l0,3.7l0,0l0,0l-21.6,0.2l-0.3,0l0-0.3c-0.1-9.9-0.2-19.8-0.2-29.8l0-0.4l0.4,0l21,0l0.5,0l0,0.5
				l0,3.7l0,0.5l-0.5,0l-16.8,0l0.5-0.5l0,9.1l-0.5-0.5l14.9,0l0.4,0l0,0.4l0,3.6l0,0.4l-0.4,0l-14.9-0.1l0.3-0.3l-0.1,9.6l-0.2-0.2
				L251.4,80.7z M251.4,80.7l-17.3,0.2l-0.2,0l0-0.2l-0.1-9.6l0-0.3l0.3,0l14.9-0.1l-0.4,0.4l0-3.6l0.4,0.4l-14.9,0l-0.5,0l0-0.5
				l0-9.1l0-0.5l0.5,0l16.8,0l-0.5,0.5l0-3.7l0.5,0.5l-21,0l0.4-0.4c0,9.9-0.1,19.8-0.2,29.8l-0.3-0.3l21.6,0.2l0,0L251.4,80.7z"/>
		</g>
	</g>
	<g>
		<path class="st0" d="M278.7,58.3h-10.2v-3.7h24.6v3.7h-10.2v26.1h-4.2V58.3z"/>
		<g>
			<path class="st0" d="M278.7,58.3l-10.2,0.2l-0.2,0l0-0.2l-0.1-3.7l0-0.2l0.3,0c8.2-0.1,16.4-0.2,24.6-0.2l0.4,0l0,0.4l0,3.7
				l0,0.5l-0.5,0l-10.2,0l0.5-0.5l-0.1,26.1l0,0.4l-0.4,0l-4.2,0l-0.4,0l0-0.4l0.2-12.9L278.7,58.3z M278.7,58.3l0.2,12.9l0.2,13.1
				l-0.4-0.4l4.2,0l-0.4,0.4l-0.1-26.1l0-0.5l0.5,0l10.2,0l-0.5,0.5l0-3.7l0.4,0.4c-8.2,0-16.4-0.1-24.6-0.2l0.2-0.2l-0.1,3.7
				l-0.2-0.2L278.7,58.3z"/>
		</g>
	</g>
</g>
<g>
	<g>
		<path class="st0" d="M56.6,430.2c-2.1-0.7-3.7-1.6-4.9-2.7l1.6-3.3c1.1,1,2.6,1.8,4.4,2.5c1.8,0.6,3.6,1,5.5,1
			c2.5,0,4.3-0.4,5.5-1.3s1.8-1.9,1.8-3.3c0-1-0.3-1.8-1-2.5s-1.5-1.1-2.5-1.5s-2.4-0.7-4.1-1.1c-2.2-0.5-4-1.1-5.4-1.6
			c-1.4-0.5-2.6-1.4-3.5-2.5s-1.5-2.6-1.5-4.5c0-1.6,0.4-3,1.3-4.3c0.8-1.3,2.1-2.3,3.8-3.1s3.8-1.1,6.3-1.1c1.8,0,3.5,0.2,5.2,0.7
			c1.7,0.5,3.2,1.1,4.4,2l-1.4,3.4c-1.2-0.8-2.6-1.4-4-1.8c-1.4-0.4-2.8-0.6-4.2-0.6c-2.4,0-4.2,0.4-5.4,1.3c-1.2,0.9-1.8,2-1.8,3.4
			c0,1,0.3,1.8,1,2.5c0.7,0.6,1.5,1.1,2.5,1.5c1,0.4,2.4,0.7,4.1,1.1c2.2,0.5,4,1.1,5.4,1.6c1.4,0.5,2.5,1.4,3.5,2.5
			s1.5,2.6,1.5,4.5c0,1.6-0.4,3-1.3,4.3c-0.9,1.3-2.1,2.3-3.9,3.1c-1.7,0.8-3.9,1.1-6.4,1.1C60.8,431.2,58.7,430.9,56.6,430.2z"/>
		<g>
			<path class="st0" d="M56.6,430.2c-1.8-0.6-3.5-1.4-4.9-2.7l0,0l0,0l1.6-3.3l0,0l0,0c1.1,1,2.4,1.7,3.8,2.3
				c1.4,0.5,2.8,0.9,4.3,1.1c1.5,0.1,3,0.1,4.4-0.2c1.4-0.3,2.9-0.8,3.8-2c0.9-1.1,1-2.8,0.3-4c-0.4-0.6-1-1-1.6-1.4
				c-0.6-0.4-1.3-0.6-2-0.8c-1.4-0.4-2.8-0.8-4.3-1.1c-1.4-0.4-2.9-0.7-4.3-1.3c-1.4-0.5-2.8-1.3-3.8-2.5c-1.1-1.1-1.7-2.7-1.8-4.3
				c-0.1-1.5,0.1-3.1,0.9-4.5c0.7-1.4,1.9-2.5,3.2-3.3c1.3-0.8,2.8-1.3,4.3-1.5c1.5-0.3,3-0.3,4.5-0.2c3,0.2,6.1,0.9,8.7,2.7
				l0.3,0.2l-0.1,0.4l-1.4,3.4l-0.2,0.5l-0.5-0.3c-2.2-1.4-4.9-2.3-7.5-2.4c-1.3,0-2.7,0.1-3.9,0.4c-1.2,0.3-2.4,1.1-3,2.2
				c-0.5,1.1-0.6,2.6,0.2,3.5c0.8,1,2,1.6,3.3,2c1.3,0.4,2.6,0.8,3.9,1.1c1.3,0.3,2.7,0.7,4,1.2c1.3,0.4,2.6,1.1,3.6,2
				c0.5,0.5,1,1,1.4,1.6c0.4,0.6,0.6,1.3,0.8,1.9c0.3,1.4,0.3,2.8-0.1,4.1c-0.4,1.3-1.1,2.6-2.1,3.5c-2.1,1.9-4.9,2.7-7.6,2.8
				C62,431.4,59.2,431.1,56.6,430.2z M56.6,430.2c2.6,0.9,5.4,1.2,8.1,1c2.7-0.2,5.5-1,7.5-2.9c1-0.9,1.7-2.1,2.1-3.5
				c0.3-1.3,0.3-2.7,0-4c-0.2-0.7-0.4-1.3-0.8-1.8c-0.4-0.6-0.9-1-1.4-1.5c-1-0.9-2.3-1.4-3.6-1.9c-1.3-0.4-2.6-0.8-3.9-1.1
				c-1.3-0.3-2.7-0.7-4-1c-1.3-0.3-2.7-1-3.6-2.1c-0.5-0.6-0.7-1.4-0.7-2.1c0-0.7,0.1-1.5,0.4-2.2c0.7-1.4,2-2.2,3.4-2.7
				c1.4-0.4,2.8-0.5,4.2-0.5c2.8,0.1,5.6,1,8,2.5l-0.7,0.2l1.4-3.4l0.2,0.6c-2.4-1.6-5.3-2.3-8.2-2.5c-2.9-0.1-5.9,0.1-8.4,1.6
				c-1.2,0.7-2.3,1.7-2.9,3c-0.7,1.2-0.9,2.7-0.8,4.1c0.1,1.4,0.5,2.8,1.5,3.8c1,1.1,2.2,1.9,3.5,2.4c2.7,1,5.7,1.6,8.5,2.5
				c1.4,0.4,2.9,1.1,3.8,2.4c0.4,0.7,0.5,1.5,0.5,2.3c-0.1,0.8-0.3,1.5-0.8,2.1c-1,1.2-2.5,1.8-4,2c-1.5,0.2-3,0.2-4.5,0.1
				c-1.5-0.2-2.9-0.5-4.3-1.1c-1.4-0.6-2.7-1.3-3.8-2.3l0.1,0l-1.6,3.3l0,0C53.1,428.7,54.8,429.6,56.6,430.2z"/>
		</g>
	</g>
	<g>
		<path class="st0" d="M116,403.9c2.2,1.8,3.3,4.4,3.3,7.6s-1.1,5.8-3.3,7.6c-2.2,1.8-5.2,2.8-9.1,2.8h-7.4v9h-4.3v-29.8h11.6
			C110.7,401.1,113.8,402,116,403.9z M112.9,416.4c1.4-1.1,2.1-2.8,2.1-5s-0.7-3.8-2.1-5c-1.4-1.1-3.5-1.7-6.2-1.7h-7.2v13.4h7.2
			C109.4,418.2,111.5,417.6,112.9,416.4z"/>
		<g>
			<path class="st0" d="M116,403.9c1.1,0.9,2,2.1,2.6,3.4c0.6,1.3,0.8,2.8,0.8,4.2c0,1.4-0.2,2.9-0.7,4.2c-0.5,1.3-1.4,2.5-2.5,3.5
				c-2.2,1.9-5.2,2.8-8,2.9c-2.9,0.1-5.7,0.1-8.6,0.2l0.4-0.4c0.1,3,0,6,0.1,9l0,0.5l-0.5,0l-4.3,0l-0.5,0l0-0.5c0-2.5,0-5,0-7.4
				l0-7.4l0.2-14.9l0-0.2l0.2,0c3.6,0,7.1,0.1,10.7,0.1c1.8,0,3.6,0.1,5.3,0.5C112.9,402,114.6,402.7,116,403.9z M116,403.9
				c-1.4-1.1-3-1.9-4.8-2.3c-1.7-0.4-3.5-0.5-5.3-0.4c-3.6,0-7.1,0.1-10.7,0.1l0.2-0.2l0.2,14.9l0,7.4c0,2.5,0.1,5,0,7.4l-0.5-0.5
				l4.3,0l-0.5,0.5c0-3,0-6,0.1-9l0-0.4l0.4,0c2.8,0,5.7,0.1,8.5,0.1c2.8-0.1,5.7-0.8,7.9-2.6c1.1-0.9,2-2,2.5-3.3
				c0.5-1.3,0.8-2.7,0.8-4.2c0-1.4-0.2-2.9-0.8-4.2C117.9,406,117.1,404.8,116,403.9z"/>
			<path class="st0" d="M112.9,416.4c0.8-0.7,1.4-1.5,1.7-2.5c0.3-1,0.4-2,0.3-3.1c-0.1-1-0.4-2-1-2.9c-0.6-0.8-1.4-1.5-2.3-1.9
				c-1.8-0.9-3.9-0.9-6-0.8c-2.1,0-4.2,0.1-6.2,0.1l0.5-0.5c0,2.2,0,4.5,0,6.7c0,2.2-0.1,4.5-0.2,6.7l-0.3-0.3l6.9,0.2
				c1.1,0,2.3,0,3.4-0.3C110.9,417.6,112,417.2,112.9,416.4z M112.9,416.4c-0.9,0.7-2,1.2-3.1,1.4c-1.1,0.3-2.3,0.4-3.4,0.4
				l-6.9,0.2l-0.3,0l0-0.3c-0.1-2.2-0.1-4.5-0.2-6.7c0-2.2-0.1-4.5,0-6.7l0-0.5l0.5,0c2.1,0,4.2,0,6.2,0.1c2.1,0,4.3,0.2,6.2,1.2
				c0.9,0.5,1.8,1.3,2.3,2.2c0.6,0.9,0.8,2,0.8,3c0.1,1-0.1,2.1-0.4,3.1C114.3,414.9,113.7,415.8,112.9,416.4z"/>
		</g>
	</g>
	<g>
		<path class="st0" d="M165.6,401.1v29.8h-4.3v-13.3h-17.1v13.3H140v-29.8h4.3v12.8h17.1v-12.8H165.6z"/>
		<g>
			<path class="st0" d="M165.6,401.1c0.1,9.8,0.3,19.8,0.3,29.8l0,0.3l-0.3,0l-4.3,0l-0.3,0l0-0.3l-0.1-13.3l0.4,0.4l-17.1,0
				l0.5-0.5l0,13.3l0,0.5l-0.5,0l-4.3,0l-0.5,0l0-0.5l0.1-29.8l0-0.4l0.4,0l4.3,0l0.4,0l0,0.4l-0.1,12.8l-0.3-0.3l17.1,0.1l-0.2,0.2
				l0.2-12.8l0-0.1l0.1,0L165.6,401.1z M165.6,401.1l-4.3,0.1l0.1-0.1l0.2,12.8l0,0.2l-0.2,0l-17.1,0.1l-0.3,0l0-0.3l-0.1-12.8
				l0.4,0.4l-4.3,0l0.4-0.4l0.1,29.8l-0.5-0.5l4.3,0l-0.5,0.5l0-13.3l0-0.5l0.5,0l17.1,0l0.4,0l0,0.4l-0.1,13.3l-0.3-0.3l4.3,0
				l-0.3,0.3L165.6,401.1z"/>
		</g>
	</g>
	<g>
		<path class="st0" d="M210.6,427.2v3.7H189v-29.8h21v3.7h-16.8v9.1h14.9v3.6h-14.9v9.6H210.6z"/>
		<g>
			<path class="st0" d="M210.6,427.2l0,3.7l0,0l0,0l-21.6,0.2l-0.3,0l0-0.3c-0.1-9.9-0.2-19.8-0.2-29.8v-0.4l0.4,0l21,0l0.5,0l0,0.5
				l0,3.7l0,0.5l-0.5,0l-16.8,0l0.5-0.5l0,9.1l-0.5-0.5l14.9,0l0.4,0l0,0.4l0,3.6l0,0.4l-0.4,0l-14.9-0.1l0.3-0.3l-0.1,9.6l-0.2-0.2
				L210.6,427.2z M210.6,427.2l-17.3,0.2l-0.2,0l0-0.2l-0.1-9.6l0-0.3l0.3,0l14.9-0.1l-0.4,0.4l0-3.6l0.4,0.4l-14.9,0l-0.5,0l0-0.5
				l0-9.1l0-0.5l0.5,0l16.8,0l-0.5,0.5l0-3.7l0.5,0.5l-21,0l0.4-0.4c0,9.9-0.1,19.8-0.2,29.8l-0.3-0.3l21.6,0.2l0,0L210.6,427.2z"/>
		</g>
	</g>
	<g>
		<path class="st0" d="M251.8,430.9l-6.4-9.1c-0.8,0.1-1.4,0.1-1.9,0.1h-7.4v9.1h-4.3v-29.8h11.6c3.9,0,6.9,0.9,9.1,2.8
			s3.3,4.4,3.3,7.6c0,2.3-0.6,4.3-1.7,5.9c-1.1,1.6-2.8,2.8-4.8,3.5l7.1,10H251.8z M249.6,416.5c1.4-1.2,2.1-2.8,2.1-5
			s-0.7-3.8-2.1-5c-1.4-1.1-3.5-1.7-6.2-1.7h-7.2v13.4h7.2C246.1,418.2,248.1,417.6,249.6,416.5z"/>
		<g>
			<path class="st0" d="M251.8,430.9l-6.6-9l0.2,0.1c-0.8,0-1.5,0.1-2.3,0.1l-2.3,0l-4.6,0l0.3-0.3l0.1,9.1l0,0.4l-0.4,0l-4.3,0
				l-0.4,0l0-0.4l-0.1-29.8l0-0.5l0.5,0l10.6,0c1.7,0,3.6,0,5.3,0.5c1.8,0.4,3.5,1.1,4.9,2.3c1.4,1.1,2.6,2.7,3.1,4.5
				c0.5,1.8,0.6,3.6,0.4,5.4c-0.3,1.8-1,3.5-2.2,4.9c-1.2,1.4-2.8,2.4-4.5,2.9l0.1-0.4l6.9,10.1l0.1,0.1l-0.2,0L251.8,430.9z
				 M251.8,430.9l4.6-0.1l-0.1,0.1l-7.2-9.9l-0.2-0.3l0.3-0.1c1.6-0.6,3.1-1.5,4.2-2.8c1.1-1.3,1.8-2.9,2-4.6c0.2-1.7,0.1-3.4-0.4-5
				c-0.5-1.6-1.5-3-2.9-4.1c-1.3-1.1-2.9-1.7-4.6-2.1c-1.7-0.4-3.4-0.4-5.1-0.4l-10.6,0l0.5-0.5l-0.1,29.8l-0.4-0.4l4.3,0l-0.4,0.4
				l0.1-9.1l0-0.3l0.3,0l4.6,0l2.3,0c0.8,0,1.5,0,2.3-0.1l0.1,0l0.1,0.1L251.8,430.9z"/>
			<path class="st0" d="M249.6,416.5c0.8-0.7,1.4-1.5,1.7-2.5c0.3-1,0.4-2,0.3-3.1c-0.1-1-0.4-2-1-2.9c-0.6-0.8-1.4-1.5-2.3-1.9
				c-1.8-0.9-3.9-0.9-6-0.8c-2.1,0-4.2,0.1-6.2,0.1l0.5-0.5c0,2.2,0,4.5,0,6.7c0,2.2-0.1,4.5-0.2,6.7l-0.3-0.3l6.9,0.2
				c1.1,0,2.3,0,3.4-0.3C247.6,417.6,248.7,417.2,249.6,416.5z M249.6,416.5c-0.9,0.7-2,1.2-3.1,1.5c-1.1,0.3-2.3,0.4-3.4,0.4
				l-6.9,0.2l-0.3,0l0-0.3c-0.1-2.2-0.1-4.5-0.2-6.7c0-2.2-0.1-4.5,0-6.7l0-0.5l0.5,0c2.1,0,4.2,0,6.2,0.1c2.1,0,4.3,0.2,6.2,1.2
				c0.9,0.5,1.8,1.3,2.3,2.2c0.5,0.9,0.8,2,0.8,3c0.1,1-0.1,2.1-0.4,3.1C251,414.9,250.4,415.8,249.6,416.5z"/>
		</g>
	</g>
	<g>
		<path class="st0" d="M298.9,427.2v3.7h-21.6v-29.8h21v3.7h-16.8v9.1h14.9v3.6h-14.9v9.6H298.9z"/>
		<g>
			<path class="st0" d="M298.9,427.2l0,3.7l0,0l0,0l-21.6,0.2l-0.3,0l0-0.3c-0.1-9.9-0.2-19.8-0.2-29.8v-0.4l0.4,0l21,0l0.5,0l0,0.5
				l0,3.7l0,0.5l-0.5,0l-16.8,0l0.5-0.5l0,9.1l-0.5-0.5l14.9,0l0.4,0l0,0.4l0,3.6l0,0.4l-0.4,0l-14.9-0.1l0.3-0.3l-0.1,9.6l-0.2-0.2
				L298.9,427.2z M298.9,427.2l-17.3,0.2l-0.2,0l0-0.2l-0.1-9.6l0-0.3l0.3,0l14.9-0.1l-0.4,0.4l0-3.6l0.4,0.4l-14.9,0l-0.5,0l0-0.5
				l0-9.1l0-0.5l0.5,0l16.8,0l-0.5,0.5l0-3.7l0.5,0.5l-21,0l0.4-0.4c0,9.9-0.1,19.8-0.2,29.8l-0.3-0.3l21.6,0.2l0,0L298.9,427.2z"/>
		</g>
	</g>
</g>
</svg>
